<mxfile host="app.diagrams.net" modified="2021-02-03T08:37:35.879Z" agent="5.0 (Windows NT 10.0; Win64; x64) AppleWebKit/537.36 (KHTML, like Gecko) Chrome/88.0.4324.104 Safari/537.36" etag="1R4QMalEkvfO7uw5JVuC" version="14.2.7" type="github">
  <diagram id="C5RBs43oDa-KdzZeNtuy" name="Page-1">
    <mxGraphModel dx="1609" dy="469" grid="1" gridSize="10" guides="1" tooltips="1" connect="1" arrows="1" fold="1" page="1" pageScale="1" pageWidth="827" pageHeight="1169" math="0" shadow="0">
      <root>
        <mxCell id="WIyWlLk6GJQsqaUBKTNV-0" />
        <mxCell id="WIyWlLk6GJQsqaUBKTNV-1" parent="WIyWlLk6GJQsqaUBKTNV-0" />
        <mxCell id="wYGx6WYIJ0M3dzBXZpBY-0" value="" style="shape=table;html=1;whiteSpace=wrap;startSize=0;container=1;collapsible=0;childLayout=tableLayout;" vertex="1" parent="WIyWlLk6GJQsqaUBKTNV-1">
          <mxGeometry x="40" y="40" width="170" height="80" as="geometry" />
        </mxCell>
        <mxCell id="wYGx6WYIJ0M3dzBXZpBY-1" value="" style="shape=partialRectangle;html=1;whiteSpace=wrap;collapsible=0;dropTarget=0;pointerEvents=0;fillColor=none;top=0;left=0;bottom=0;right=0;points=[[0,0.5],[1,0.5]];portConstraint=eastwest;" vertex="1" parent="wYGx6WYIJ0M3dzBXZpBY-0">
          <mxGeometry width="170" height="40" as="geometry" />
        </mxCell>
        <mxCell id="wYGx6WYIJ0M3dzBXZpBY-2" value="Faculty-ID" style="shape=partialRectangle;html=1;whiteSpace=wrap;connectable=0;overflow=hidden;fillColor=none;top=0;left=0;bottom=0;right=0;" vertex="1" parent="wYGx6WYIJ0M3dzBXZpBY-1">
          <mxGeometry width="80" height="40" as="geometry" />
        </mxCell>
        <mxCell id="wYGx6WYIJ0M3dzBXZpBY-3" value="Faculty-Name" style="shape=partialRectangle;html=1;whiteSpace=wrap;connectable=0;overflow=hidden;fillColor=none;top=0;left=0;bottom=0;right=0;" vertex="1" parent="wYGx6WYIJ0M3dzBXZpBY-1">
          <mxGeometry x="80" width="90" height="40" as="geometry" />
        </mxCell>
        <mxCell id="wYGx6WYIJ0M3dzBXZpBY-4" value="" style="shape=partialRectangle;html=1;whiteSpace=wrap;collapsible=0;dropTarget=0;pointerEvents=0;fillColor=none;top=0;left=0;bottom=0;right=0;points=[[0,0.5],[1,0.5]];portConstraint=eastwest;" vertex="1" parent="wYGx6WYIJ0M3dzBXZpBY-0">
          <mxGeometry y="40" width="170" height="40" as="geometry" />
        </mxCell>
        <mxCell id="wYGx6WYIJ0M3dzBXZpBY-5" value="" style="shape=partialRectangle;html=1;whiteSpace=wrap;connectable=0;overflow=hidden;fillColor=none;top=0;left=0;bottom=0;right=0;" vertex="1" parent="wYGx6WYIJ0M3dzBXZpBY-4">
          <mxGeometry width="80" height="40" as="geometry" />
        </mxCell>
        <mxCell id="wYGx6WYIJ0M3dzBXZpBY-6" value="" style="shape=partialRectangle;html=1;whiteSpace=wrap;connectable=0;overflow=hidden;fillColor=none;top=0;left=0;bottom=0;right=0;" vertex="1" parent="wYGx6WYIJ0M3dzBXZpBY-4">
          <mxGeometry x="80" width="90" height="40" as="geometry" />
        </mxCell>
        <mxCell id="wYGx6WYIJ0M3dzBXZpBY-7" value="" style="shape=table;html=1;whiteSpace=wrap;startSize=0;container=1;collapsible=0;childLayout=tableLayout;" vertex="1" parent="WIyWlLk6GJQsqaUBKTNV-1">
          <mxGeometry x="240" y="40" width="200" height="80" as="geometry" />
        </mxCell>
        <mxCell id="wYGx6WYIJ0M3dzBXZpBY-8" value="" style="shape=partialRectangle;html=1;whiteSpace=wrap;collapsible=0;dropTarget=0;pointerEvents=0;fillColor=none;top=0;left=0;bottom=0;right=0;points=[[0,0.5],[1,0.5]];portConstraint=eastwest;" vertex="1" parent="wYGx6WYIJ0M3dzBXZpBY-7">
          <mxGeometry width="200" height="40" as="geometry" />
        </mxCell>
        <mxCell id="wYGx6WYIJ0M3dzBXZpBY-9" value="Departement-ID" style="shape=partialRectangle;html=1;whiteSpace=wrap;connectable=0;overflow=hidden;fillColor=none;top=0;left=0;bottom=0;right=0;" vertex="1" parent="wYGx6WYIJ0M3dzBXZpBY-8">
          <mxGeometry width="100" height="40" as="geometry" />
        </mxCell>
        <mxCell id="wYGx6WYIJ0M3dzBXZpBY-10" value="Dept-Name" style="shape=partialRectangle;html=1;whiteSpace=wrap;connectable=0;overflow=hidden;fillColor=none;top=0;left=0;bottom=0;right=0;" vertex="1" parent="wYGx6WYIJ0M3dzBXZpBY-8">
          <mxGeometry x="100" width="100" height="40" as="geometry" />
        </mxCell>
        <mxCell id="wYGx6WYIJ0M3dzBXZpBY-11" value="" style="shape=partialRectangle;html=1;whiteSpace=wrap;collapsible=0;dropTarget=0;pointerEvents=0;fillColor=none;top=0;left=0;bottom=0;right=0;points=[[0,0.5],[1,0.5]];portConstraint=eastwest;" vertex="1" parent="wYGx6WYIJ0M3dzBXZpBY-7">
          <mxGeometry y="40" width="200" height="40" as="geometry" />
        </mxCell>
        <mxCell id="wYGx6WYIJ0M3dzBXZpBY-12" value="" style="shape=partialRectangle;html=1;whiteSpace=wrap;connectable=0;overflow=hidden;fillColor=none;top=0;left=0;bottom=0;right=0;" vertex="1" parent="wYGx6WYIJ0M3dzBXZpBY-11">
          <mxGeometry width="100" height="40" as="geometry" />
        </mxCell>
        <mxCell id="wYGx6WYIJ0M3dzBXZpBY-13" value="" style="shape=partialRectangle;html=1;whiteSpace=wrap;connectable=0;overflow=hidden;fillColor=none;top=0;left=0;bottom=0;right=0;" vertex="1" parent="wYGx6WYIJ0M3dzBXZpBY-11">
          <mxGeometry x="100" width="100" height="40" as="geometry" />
        </mxCell>
        <mxCell id="wYGx6WYIJ0M3dzBXZpBY-14" value="" style="shape=table;html=1;whiteSpace=wrap;startSize=0;container=1;collapsible=0;childLayout=tableLayout;" vertex="1" parent="WIyWlLk6GJQsqaUBKTNV-1">
          <mxGeometry x="470" y="40" width="170" height="80" as="geometry" />
        </mxCell>
        <mxCell id="wYGx6WYIJ0M3dzBXZpBY-15" value="" style="shape=partialRectangle;html=1;whiteSpace=wrap;collapsible=0;dropTarget=0;pointerEvents=0;fillColor=none;top=0;left=0;bottom=0;right=0;points=[[0,0.5],[1,0.5]];portConstraint=eastwest;" vertex="1" parent="wYGx6WYIJ0M3dzBXZpBY-14">
          <mxGeometry width="170" height="40" as="geometry" />
        </mxCell>
        <mxCell id="wYGx6WYIJ0M3dzBXZpBY-16" value="Course-ID" style="shape=partialRectangle;html=1;whiteSpace=wrap;connectable=0;overflow=hidden;fillColor=none;top=0;left=0;bottom=0;right=0;" vertex="1" parent="wYGx6WYIJ0M3dzBXZpBY-15">
          <mxGeometry width="80" height="40" as="geometry" />
        </mxCell>
        <mxCell id="wYGx6WYIJ0M3dzBXZpBY-17" value="Course-Name" style="shape=partialRectangle;html=1;whiteSpace=wrap;connectable=0;overflow=hidden;fillColor=none;top=0;left=0;bottom=0;right=0;" vertex="1" parent="wYGx6WYIJ0M3dzBXZpBY-15">
          <mxGeometry x="80" width="90" height="40" as="geometry" />
        </mxCell>
        <mxCell id="wYGx6WYIJ0M3dzBXZpBY-18" value="" style="shape=partialRectangle;html=1;whiteSpace=wrap;collapsible=0;dropTarget=0;pointerEvents=0;fillColor=none;top=0;left=0;bottom=0;right=0;points=[[0,0.5],[1,0.5]];portConstraint=eastwest;" vertex="1" parent="wYGx6WYIJ0M3dzBXZpBY-14">
          <mxGeometry y="40" width="170" height="40" as="geometry" />
        </mxCell>
        <mxCell id="wYGx6WYIJ0M3dzBXZpBY-19" value="" style="shape=partialRectangle;html=1;whiteSpace=wrap;connectable=0;overflow=hidden;fillColor=none;top=0;left=0;bottom=0;right=0;" vertex="1" parent="wYGx6WYIJ0M3dzBXZpBY-18">
          <mxGeometry width="80" height="40" as="geometry" />
        </mxCell>
        <mxCell id="wYGx6WYIJ0M3dzBXZpBY-20" value="" style="shape=partialRectangle;html=1;whiteSpace=wrap;connectable=0;overflow=hidden;fillColor=none;top=0;left=0;bottom=0;right=0;" vertex="1" parent="wYGx6WYIJ0M3dzBXZpBY-18">
          <mxGeometry x="80" width="90" height="40" as="geometry" />
        </mxCell>
        <mxCell id="wYGx6WYIJ0M3dzBXZpBY-62" value="Student-ID" style="shape=partialRectangle;html=1;whiteSpace=wrap;connectable=0;overflow=hidden;fillColor=none;top=0;left=0;bottom=0;right=0;" vertex="1" parent="WIyWlLk6GJQsqaUBKTNV-1">
          <mxGeometry x="40" y="160" width="120" height="40" as="geometry" />
        </mxCell>
        <mxCell id="wYGx6WYIJ0M3dzBXZpBY-66" value="" style="shape=table;html=1;whiteSpace=wrap;startSize=0;container=1;collapsible=0;childLayout=tableLayout;" vertex="1" parent="WIyWlLk6GJQsqaUBKTNV-1">
          <mxGeometry x="40" y="160" width="590" height="80" as="geometry" />
        </mxCell>
        <mxCell id="wYGx6WYIJ0M3dzBXZpBY-67" value="" style="shape=partialRectangle;html=1;whiteSpace=wrap;collapsible=0;dropTarget=0;pointerEvents=0;fillColor=none;top=0;left=0;bottom=0;right=0;points=[[0,0.5],[1,0.5]];portConstraint=eastwest;" vertex="1" parent="wYGx6WYIJ0M3dzBXZpBY-66">
          <mxGeometry width="590" height="40" as="geometry" />
        </mxCell>
        <mxCell id="wYGx6WYIJ0M3dzBXZpBY-68" value="Teacher-ID" style="shape=partialRectangle;html=1;whiteSpace=wrap;connectable=0;overflow=hidden;fillColor=none;top=0;left=0;bottom=0;right=0;" vertex="1" parent="wYGx6WYIJ0M3dzBXZpBY-67">
          <mxGeometry width="118" height="40" as="geometry" />
        </mxCell>
        <mxCell id="wYGx6WYIJ0M3dzBXZpBY-69" value="Teacher-Name" style="shape=partialRectangle;html=1;whiteSpace=wrap;connectable=0;overflow=hidden;fillColor=none;top=0;left=0;bottom=0;right=0;" vertex="1" parent="wYGx6WYIJ0M3dzBXZpBY-67">
          <mxGeometry x="118" width="118" height="40" as="geometry" />
        </mxCell>
        <mxCell id="wYGx6WYIJ0M3dzBXZpBY-70" value="T-Father-Name" style="shape=partialRectangle;html=1;whiteSpace=wrap;connectable=0;overflow=hidden;fillColor=none;top=0;left=0;bottom=0;right=0;" vertex="1" parent="wYGx6WYIJ0M3dzBXZpBY-67">
          <mxGeometry x="236" width="118" height="40" as="geometry" />
        </mxCell>
        <mxCell id="wYGx6WYIJ0M3dzBXZpBY-71" value="T-Mobile-Number" style="shape=partialRectangle;html=1;whiteSpace=wrap;connectable=0;overflow=hidden;fillColor=none;top=0;left=0;bottom=0;right=0;" vertex="1" parent="wYGx6WYIJ0M3dzBXZpBY-67">
          <mxGeometry x="354" width="118" height="40" as="geometry" />
        </mxCell>
        <mxCell id="wYGx6WYIJ0M3dzBXZpBY-72" value="T-CNIC" style="shape=partialRectangle;html=1;whiteSpace=wrap;connectable=0;overflow=hidden;fillColor=none;top=0;left=0;bottom=0;right=0;" vertex="1" parent="wYGx6WYIJ0M3dzBXZpBY-67">
          <mxGeometry x="472" width="118" height="40" as="geometry" />
        </mxCell>
        <mxCell id="wYGx6WYIJ0M3dzBXZpBY-73" value="" style="shape=partialRectangle;html=1;whiteSpace=wrap;collapsible=0;dropTarget=0;pointerEvents=0;fillColor=none;top=0;left=0;bottom=0;right=0;points=[[0,0.5],[1,0.5]];portConstraint=eastwest;" vertex="1" parent="wYGx6WYIJ0M3dzBXZpBY-66">
          <mxGeometry y="40" width="590" height="40" as="geometry" />
        </mxCell>
        <mxCell id="wYGx6WYIJ0M3dzBXZpBY-74" value="" style="shape=partialRectangle;html=1;whiteSpace=wrap;connectable=0;overflow=hidden;fillColor=none;top=0;left=0;bottom=0;right=0;" vertex="1" parent="wYGx6WYIJ0M3dzBXZpBY-73">
          <mxGeometry width="118" height="40" as="geometry" />
        </mxCell>
        <mxCell id="wYGx6WYIJ0M3dzBXZpBY-75" value="" style="shape=partialRectangle;html=1;whiteSpace=wrap;connectable=0;overflow=hidden;fillColor=none;top=0;left=0;bottom=0;right=0;" vertex="1" parent="wYGx6WYIJ0M3dzBXZpBY-73">
          <mxGeometry x="118" width="118" height="40" as="geometry" />
        </mxCell>
        <mxCell id="wYGx6WYIJ0M3dzBXZpBY-76" value="" style="shape=partialRectangle;html=1;whiteSpace=wrap;connectable=0;overflow=hidden;fillColor=none;top=0;left=0;bottom=0;right=0;" vertex="1" parent="wYGx6WYIJ0M3dzBXZpBY-73">
          <mxGeometry x="236" width="118" height="40" as="geometry" />
        </mxCell>
        <mxCell id="wYGx6WYIJ0M3dzBXZpBY-77" value="" style="shape=partialRectangle;html=1;whiteSpace=wrap;connectable=0;overflow=hidden;fillColor=none;top=0;left=0;bottom=0;right=0;" vertex="1" parent="wYGx6WYIJ0M3dzBXZpBY-73">
          <mxGeometry x="354" width="118" height="40" as="geometry" />
        </mxCell>
        <mxCell id="wYGx6WYIJ0M3dzBXZpBY-78" value="" style="shape=partialRectangle;html=1;whiteSpace=wrap;connectable=0;overflow=hidden;fillColor=none;top=0;left=0;bottom=0;right=0;" vertex="1" parent="wYGx6WYIJ0M3dzBXZpBY-73">
          <mxGeometry x="472" width="118" height="40" as="geometry" />
        </mxCell>
        <mxCell id="wYGx6WYIJ0M3dzBXZpBY-79" value="" style="shape=table;html=1;whiteSpace=wrap;startSize=0;container=1;collapsible=0;childLayout=tableLayout;" vertex="1" parent="WIyWlLk6GJQsqaUBKTNV-1">
          <mxGeometry x="40" y="270" width="590" height="80" as="geometry" />
        </mxCell>
        <mxCell id="wYGx6WYIJ0M3dzBXZpBY-80" value="" style="shape=partialRectangle;html=1;whiteSpace=wrap;collapsible=0;dropTarget=0;pointerEvents=0;fillColor=none;top=0;left=0;bottom=0;right=0;points=[[0,0.5],[1,0.5]];portConstraint=eastwest;" vertex="1" parent="wYGx6WYIJ0M3dzBXZpBY-79">
          <mxGeometry width="590" height="40" as="geometry" />
        </mxCell>
        <mxCell id="wYGx6WYIJ0M3dzBXZpBY-81" value="Student-ID" style="shape=partialRectangle;html=1;whiteSpace=wrap;connectable=0;overflow=hidden;fillColor=none;top=0;left=0;bottom=0;right=0;" vertex="1" parent="wYGx6WYIJ0M3dzBXZpBY-80">
          <mxGeometry width="118" height="40" as="geometry" />
        </mxCell>
        <mxCell id="wYGx6WYIJ0M3dzBXZpBY-82" value="Student-Name" style="shape=partialRectangle;html=1;whiteSpace=wrap;connectable=0;overflow=hidden;fillColor=none;top=0;left=0;bottom=0;right=0;" vertex="1" parent="wYGx6WYIJ0M3dzBXZpBY-80">
          <mxGeometry x="118" width="118" height="40" as="geometry" />
        </mxCell>
        <mxCell id="wYGx6WYIJ0M3dzBXZpBY-83" value="S-Father-Name" style="shape=partialRectangle;html=1;whiteSpace=wrap;connectable=0;overflow=hidden;fillColor=none;top=0;left=0;bottom=0;right=0;" vertex="1" parent="wYGx6WYIJ0M3dzBXZpBY-80">
          <mxGeometry x="236" width="118" height="40" as="geometry" />
        </mxCell>
        <mxCell id="wYGx6WYIJ0M3dzBXZpBY-84" value="S-Mobile-Number" style="shape=partialRectangle;html=1;whiteSpace=wrap;connectable=0;overflow=hidden;fillColor=none;top=0;left=0;bottom=0;right=0;" vertex="1" parent="wYGx6WYIJ0M3dzBXZpBY-80">
          <mxGeometry x="354" width="118" height="40" as="geometry" />
        </mxCell>
        <mxCell id="wYGx6WYIJ0M3dzBXZpBY-85" value="S-CNIC" style="shape=partialRectangle;html=1;whiteSpace=wrap;connectable=0;overflow=hidden;fillColor=none;top=0;left=0;bottom=0;right=0;" vertex="1" parent="wYGx6WYIJ0M3dzBXZpBY-80">
          <mxGeometry x="472" width="118" height="40" as="geometry" />
        </mxCell>
        <mxCell id="wYGx6WYIJ0M3dzBXZpBY-86" value="" style="shape=partialRectangle;html=1;whiteSpace=wrap;collapsible=0;dropTarget=0;pointerEvents=0;fillColor=none;top=0;left=0;bottom=0;right=0;points=[[0,0.5],[1,0.5]];portConstraint=eastwest;" vertex="1" parent="wYGx6WYIJ0M3dzBXZpBY-79">
          <mxGeometry y="40" width="590" height="40" as="geometry" />
        </mxCell>
        <mxCell id="wYGx6WYIJ0M3dzBXZpBY-87" value="" style="shape=partialRectangle;html=1;whiteSpace=wrap;connectable=0;overflow=hidden;fillColor=none;top=0;left=0;bottom=0;right=0;" vertex="1" parent="wYGx6WYIJ0M3dzBXZpBY-86">
          <mxGeometry width="118" height="40" as="geometry" />
        </mxCell>
        <mxCell id="wYGx6WYIJ0M3dzBXZpBY-88" value="" style="shape=partialRectangle;html=1;whiteSpace=wrap;connectable=0;overflow=hidden;fillColor=none;top=0;left=0;bottom=0;right=0;" vertex="1" parent="wYGx6WYIJ0M3dzBXZpBY-86">
          <mxGeometry x="118" width="118" height="40" as="geometry" />
        </mxCell>
        <mxCell id="wYGx6WYIJ0M3dzBXZpBY-89" value="" style="shape=partialRectangle;html=1;whiteSpace=wrap;connectable=0;overflow=hidden;fillColor=none;top=0;left=0;bottom=0;right=0;" vertex="1" parent="wYGx6WYIJ0M3dzBXZpBY-86">
          <mxGeometry x="236" width="118" height="40" as="geometry" />
        </mxCell>
        <mxCell id="wYGx6WYIJ0M3dzBXZpBY-90" value="" style="shape=partialRectangle;html=1;whiteSpace=wrap;connectable=0;overflow=hidden;fillColor=none;top=0;left=0;bottom=0;right=0;" vertex="1" parent="wYGx6WYIJ0M3dzBXZpBY-86">
          <mxGeometry x="354" width="118" height="40" as="geometry" />
        </mxCell>
        <mxCell id="wYGx6WYIJ0M3dzBXZpBY-91" value="" style="shape=partialRectangle;html=1;whiteSpace=wrap;connectable=0;overflow=hidden;fillColor=none;top=0;left=0;bottom=0;right=0;" vertex="1" parent="wYGx6WYIJ0M3dzBXZpBY-86">
          <mxGeometry x="472" width="118" height="40" as="geometry" />
        </mxCell>
        <mxCell id="wYGx6WYIJ0M3dzBXZpBY-92" value="DE-NORMALIZATION" style="text;html=1;strokeColor=none;fillColor=none;align=center;verticalAlign=middle;whiteSpace=wrap;rounded=0;" vertex="1" parent="WIyWlLk6GJQsqaUBKTNV-1">
          <mxGeometry x="50" y="400" width="590" height="20" as="geometry" />
        </mxCell>
        <mxCell id="wYGx6WYIJ0M3dzBXZpBY-93" value="" style="shape=table;html=1;whiteSpace=wrap;startSize=0;container=1;collapsible=0;childLayout=tableLayout;" vertex="1" parent="WIyWlLk6GJQsqaUBKTNV-1">
          <mxGeometry x="90" y="470" width="390" height="80" as="geometry" />
        </mxCell>
        <mxCell id="wYGx6WYIJ0M3dzBXZpBY-94" value="" style="shape=partialRectangle;html=1;whiteSpace=wrap;collapsible=0;dropTarget=0;pointerEvents=0;fillColor=none;top=0;left=0;bottom=0;right=0;points=[[0,0.5],[1,0.5]];portConstraint=eastwest;" vertex="1" parent="wYGx6WYIJ0M3dzBXZpBY-93">
          <mxGeometry width="390" height="40" as="geometry" />
        </mxCell>
        <mxCell id="wYGx6WYIJ0M3dzBXZpBY-95" value="Student-ID" style="shape=partialRectangle;html=1;whiteSpace=wrap;connectable=0;overflow=hidden;fillColor=none;top=0;left=0;bottom=0;right=0;" vertex="1" parent="wYGx6WYIJ0M3dzBXZpBY-94">
          <mxGeometry width="78" height="40" as="geometry" />
        </mxCell>
        <mxCell id="wYGx6WYIJ0M3dzBXZpBY-96" value="Student-Name" style="shape=partialRectangle;html=1;whiteSpace=wrap;connectable=0;overflow=hidden;fillColor=none;top=0;left=0;bottom=0;right=0;" vertex="1" parent="wYGx6WYIJ0M3dzBXZpBY-94">
          <mxGeometry x="78" width="78" height="40" as="geometry" />
        </mxCell>
        <mxCell id="wYGx6WYIJ0M3dzBXZpBY-97" value="S-Father-Name" style="shape=partialRectangle;html=1;whiteSpace=wrap;connectable=0;overflow=hidden;fillColor=none;top=0;left=0;bottom=0;right=0;" vertex="1" parent="wYGx6WYIJ0M3dzBXZpBY-94">
          <mxGeometry x="156" width="78" height="40" as="geometry" />
        </mxCell>
        <mxCell id="wYGx6WYIJ0M3dzBXZpBY-98" value="S-Mobile-Number" style="shape=partialRectangle;html=1;whiteSpace=wrap;connectable=0;overflow=hidden;fillColor=none;top=0;left=0;bottom=0;right=0;" vertex="1" parent="wYGx6WYIJ0M3dzBXZpBY-94">
          <mxGeometry x="234" width="78" height="40" as="geometry" />
        </mxCell>
        <mxCell id="wYGx6WYIJ0M3dzBXZpBY-99" value="S-CNIC" style="shape=partialRectangle;html=1;whiteSpace=wrap;connectable=0;overflow=hidden;fillColor=none;top=0;left=0;bottom=0;right=0;" vertex="1" parent="wYGx6WYIJ0M3dzBXZpBY-94">
          <mxGeometry x="312" width="78" height="40" as="geometry" />
        </mxCell>
        <mxCell id="wYGx6WYIJ0M3dzBXZpBY-100" value="" style="shape=partialRectangle;html=1;whiteSpace=wrap;collapsible=0;dropTarget=0;pointerEvents=0;fillColor=none;top=0;left=0;bottom=0;right=0;points=[[0,0.5],[1,0.5]];portConstraint=eastwest;" vertex="1" parent="wYGx6WYIJ0M3dzBXZpBY-93">
          <mxGeometry y="40" width="390" height="40" as="geometry" />
        </mxCell>
        <mxCell id="wYGx6WYIJ0M3dzBXZpBY-101" value="" style="shape=partialRectangle;html=1;whiteSpace=wrap;connectable=0;overflow=hidden;fillColor=none;top=0;left=0;bottom=0;right=0;" vertex="1" parent="wYGx6WYIJ0M3dzBXZpBY-100">
          <mxGeometry width="78" height="40" as="geometry" />
        </mxCell>
        <mxCell id="wYGx6WYIJ0M3dzBXZpBY-102" value="" style="shape=partialRectangle;html=1;whiteSpace=wrap;connectable=0;overflow=hidden;fillColor=none;top=0;left=0;bottom=0;right=0;" vertex="1" parent="wYGx6WYIJ0M3dzBXZpBY-100">
          <mxGeometry x="78" width="78" height="40" as="geometry" />
        </mxCell>
        <mxCell id="wYGx6WYIJ0M3dzBXZpBY-103" value="" style="shape=partialRectangle;html=1;whiteSpace=wrap;connectable=0;overflow=hidden;fillColor=none;top=0;left=0;bottom=0;right=0;" vertex="1" parent="wYGx6WYIJ0M3dzBXZpBY-100">
          <mxGeometry x="156" width="78" height="40" as="geometry" />
        </mxCell>
        <mxCell id="wYGx6WYIJ0M3dzBXZpBY-104" value="" style="shape=partialRectangle;html=1;whiteSpace=wrap;connectable=0;overflow=hidden;fillColor=none;top=0;left=0;bottom=0;right=0;" vertex="1" parent="wYGx6WYIJ0M3dzBXZpBY-100">
          <mxGeometry x="234" width="78" height="40" as="geometry" />
        </mxCell>
        <mxCell id="wYGx6WYIJ0M3dzBXZpBY-105" value="" style="shape=partialRectangle;html=1;whiteSpace=wrap;connectable=0;overflow=hidden;fillColor=none;top=0;left=0;bottom=0;right=0;" vertex="1" parent="wYGx6WYIJ0M3dzBXZpBY-100">
          <mxGeometry x="312" width="78" height="40" as="geometry" />
        </mxCell>
        <mxCell id="wYGx6WYIJ0M3dzBXZpBY-119" value="" style="shape=table;html=1;whiteSpace=wrap;startSize=0;container=1;collapsible=0;childLayout=tableLayout;" vertex="1" parent="WIyWlLk6GJQsqaUBKTNV-1">
          <mxGeometry x="480" y="470" width="330" height="80" as="geometry" />
        </mxCell>
        <mxCell id="wYGx6WYIJ0M3dzBXZpBY-120" value="" style="shape=partialRectangle;html=1;whiteSpace=wrap;collapsible=0;dropTarget=0;pointerEvents=0;fillColor=none;top=0;left=0;bottom=0;right=0;points=[[0,0.5],[1,0.5]];portConstraint=eastwest;" vertex="1" parent="wYGx6WYIJ0M3dzBXZpBY-119">
          <mxGeometry width="330" height="40" as="geometry" />
        </mxCell>
        <mxCell id="wYGx6WYIJ0M3dzBXZpBY-121" value="Teacher-ID" style="shape=partialRectangle;html=1;whiteSpace=wrap;connectable=0;overflow=hidden;fillColor=none;top=0;left=0;bottom=0;right=0;" vertex="1" parent="wYGx6WYIJ0M3dzBXZpBY-120">
          <mxGeometry width="66" height="40" as="geometry" />
        </mxCell>
        <mxCell id="wYGx6WYIJ0M3dzBXZpBY-122" value="Teacher-Name" style="shape=partialRectangle;html=1;whiteSpace=wrap;connectable=0;overflow=hidden;fillColor=none;top=0;left=0;bottom=0;right=0;" vertex="1" parent="wYGx6WYIJ0M3dzBXZpBY-120">
          <mxGeometry x="66" width="66" height="40" as="geometry" />
        </mxCell>
        <mxCell id="wYGx6WYIJ0M3dzBXZpBY-123" value="T-Father-Name" style="shape=partialRectangle;html=1;whiteSpace=wrap;connectable=0;overflow=hidden;fillColor=none;top=0;left=0;bottom=0;right=0;" vertex="1" parent="wYGx6WYIJ0M3dzBXZpBY-120">
          <mxGeometry x="132" width="66" height="40" as="geometry" />
        </mxCell>
        <mxCell id="wYGx6WYIJ0M3dzBXZpBY-124" value="T-Mobile-Number" style="shape=partialRectangle;html=1;whiteSpace=wrap;connectable=0;overflow=hidden;fillColor=none;top=0;left=0;bottom=0;right=0;" vertex="1" parent="wYGx6WYIJ0M3dzBXZpBY-120">
          <mxGeometry x="198" width="66" height="40" as="geometry" />
        </mxCell>
        <mxCell id="wYGx6WYIJ0M3dzBXZpBY-125" value="T-CNIC" style="shape=partialRectangle;html=1;whiteSpace=wrap;connectable=0;overflow=hidden;fillColor=none;top=0;left=0;bottom=0;right=0;" vertex="1" parent="wYGx6WYIJ0M3dzBXZpBY-120">
          <mxGeometry x="264" width="66" height="40" as="geometry" />
        </mxCell>
        <mxCell id="wYGx6WYIJ0M3dzBXZpBY-126" value="" style="shape=partialRectangle;html=1;whiteSpace=wrap;collapsible=0;dropTarget=0;pointerEvents=0;fillColor=none;top=0;left=0;bottom=0;right=0;points=[[0,0.5],[1,0.5]];portConstraint=eastwest;" vertex="1" parent="wYGx6WYIJ0M3dzBXZpBY-119">
          <mxGeometry y="40" width="330" height="40" as="geometry" />
        </mxCell>
        <mxCell id="wYGx6WYIJ0M3dzBXZpBY-127" value="" style="shape=partialRectangle;html=1;whiteSpace=wrap;connectable=0;overflow=hidden;fillColor=none;top=0;left=0;bottom=0;right=0;" vertex="1" parent="wYGx6WYIJ0M3dzBXZpBY-126">
          <mxGeometry width="66" height="40" as="geometry" />
        </mxCell>
        <mxCell id="wYGx6WYIJ0M3dzBXZpBY-128" value="" style="shape=partialRectangle;html=1;whiteSpace=wrap;connectable=0;overflow=hidden;fillColor=none;top=0;left=0;bottom=0;right=0;" vertex="1" parent="wYGx6WYIJ0M3dzBXZpBY-126">
          <mxGeometry x="66" width="66" height="40" as="geometry" />
        </mxCell>
        <mxCell id="wYGx6WYIJ0M3dzBXZpBY-129" value="" style="shape=partialRectangle;html=1;whiteSpace=wrap;connectable=0;overflow=hidden;fillColor=none;top=0;left=0;bottom=0;right=0;" vertex="1" parent="wYGx6WYIJ0M3dzBXZpBY-126">
          <mxGeometry x="132" width="66" height="40" as="geometry" />
        </mxCell>
        <mxCell id="wYGx6WYIJ0M3dzBXZpBY-130" value="" style="shape=partialRectangle;html=1;whiteSpace=wrap;connectable=0;overflow=hidden;fillColor=none;top=0;left=0;bottom=0;right=0;" vertex="1" parent="wYGx6WYIJ0M3dzBXZpBY-126">
          <mxGeometry x="198" width="66" height="40" as="geometry" />
        </mxCell>
        <mxCell id="wYGx6WYIJ0M3dzBXZpBY-131" value="" style="shape=partialRectangle;html=1;whiteSpace=wrap;connectable=0;overflow=hidden;fillColor=none;top=0;left=0;bottom=0;right=0;" vertex="1" parent="wYGx6WYIJ0M3dzBXZpBY-126">
          <mxGeometry x="264" width="66" height="40" as="geometry" />
        </mxCell>
        <mxCell id="wYGx6WYIJ0M3dzBXZpBY-132" value="" style="shape=table;html=1;whiteSpace=wrap;startSize=0;container=1;collapsible=0;childLayout=tableLayout;" vertex="1" parent="WIyWlLk6GJQsqaUBKTNV-1">
          <mxGeometry x="-330" y="470" width="130" height="80" as="geometry" />
        </mxCell>
        <mxCell id="wYGx6WYIJ0M3dzBXZpBY-133" value="" style="shape=partialRectangle;html=1;whiteSpace=wrap;collapsible=0;dropTarget=0;pointerEvents=0;fillColor=none;top=0;left=0;bottom=0;right=0;points=[[0,0.5],[1,0.5]];portConstraint=eastwest;" vertex="1" parent="wYGx6WYIJ0M3dzBXZpBY-132">
          <mxGeometry width="130" height="40" as="geometry" />
        </mxCell>
        <mxCell id="wYGx6WYIJ0M3dzBXZpBY-134" value="Faculty-ID" style="shape=partialRectangle;html=1;whiteSpace=wrap;connectable=0;overflow=hidden;fillColor=none;top=0;left=0;bottom=0;right=0;" vertex="1" parent="wYGx6WYIJ0M3dzBXZpBY-133">
          <mxGeometry width="61" height="40" as="geometry" />
        </mxCell>
        <mxCell id="wYGx6WYIJ0M3dzBXZpBY-135" value="Faculty-Name" style="shape=partialRectangle;html=1;whiteSpace=wrap;connectable=0;overflow=hidden;fillColor=none;top=0;left=0;bottom=0;right=0;" vertex="1" parent="wYGx6WYIJ0M3dzBXZpBY-133">
          <mxGeometry x="61" width="69" height="40" as="geometry" />
        </mxCell>
        <mxCell id="wYGx6WYIJ0M3dzBXZpBY-136" value="" style="shape=partialRectangle;html=1;whiteSpace=wrap;collapsible=0;dropTarget=0;pointerEvents=0;fillColor=none;top=0;left=0;bottom=0;right=0;points=[[0,0.5],[1,0.5]];portConstraint=eastwest;" vertex="1" parent="wYGx6WYIJ0M3dzBXZpBY-132">
          <mxGeometry y="40" width="130" height="40" as="geometry" />
        </mxCell>
        <mxCell id="wYGx6WYIJ0M3dzBXZpBY-137" value="" style="shape=partialRectangle;html=1;whiteSpace=wrap;connectable=0;overflow=hidden;fillColor=none;top=0;left=0;bottom=0;right=0;" vertex="1" parent="wYGx6WYIJ0M3dzBXZpBY-136">
          <mxGeometry width="61" height="40" as="geometry" />
        </mxCell>
        <mxCell id="wYGx6WYIJ0M3dzBXZpBY-138" value="" style="shape=partialRectangle;html=1;whiteSpace=wrap;connectable=0;overflow=hidden;fillColor=none;top=0;left=0;bottom=0;right=0;" vertex="1" parent="wYGx6WYIJ0M3dzBXZpBY-136">
          <mxGeometry x="61" width="69" height="40" as="geometry" />
        </mxCell>
        <mxCell id="wYGx6WYIJ0M3dzBXZpBY-139" value="" style="shape=table;html=1;whiteSpace=wrap;startSize=0;container=1;collapsible=0;childLayout=tableLayout;" vertex="1" parent="WIyWlLk6GJQsqaUBKTNV-1">
          <mxGeometry x="-200" y="470" width="150" height="80" as="geometry" />
        </mxCell>
        <mxCell id="wYGx6WYIJ0M3dzBXZpBY-140" value="" style="shape=partialRectangle;html=1;whiteSpace=wrap;collapsible=0;dropTarget=0;pointerEvents=0;fillColor=none;top=0;left=0;bottom=0;right=0;points=[[0,0.5],[1,0.5]];portConstraint=eastwest;" vertex="1" parent="wYGx6WYIJ0M3dzBXZpBY-139">
          <mxGeometry width="150" height="40" as="geometry" />
        </mxCell>
        <mxCell id="wYGx6WYIJ0M3dzBXZpBY-141" value="Departement-ID" style="shape=partialRectangle;html=1;whiteSpace=wrap;connectable=0;overflow=hidden;fillColor=none;top=0;left=0;bottom=0;right=0;" vertex="1" parent="wYGx6WYIJ0M3dzBXZpBY-140">
          <mxGeometry width="75" height="40" as="geometry" />
        </mxCell>
        <mxCell id="wYGx6WYIJ0M3dzBXZpBY-142" value="Dept-Name" style="shape=partialRectangle;html=1;whiteSpace=wrap;connectable=0;overflow=hidden;fillColor=none;top=0;left=0;bottom=0;right=0;" vertex="1" parent="wYGx6WYIJ0M3dzBXZpBY-140">
          <mxGeometry x="75" width="75" height="40" as="geometry" />
        </mxCell>
        <mxCell id="wYGx6WYIJ0M3dzBXZpBY-143" value="" style="shape=partialRectangle;html=1;whiteSpace=wrap;collapsible=0;dropTarget=0;pointerEvents=0;fillColor=none;top=0;left=0;bottom=0;right=0;points=[[0,0.5],[1,0.5]];portConstraint=eastwest;" vertex="1" parent="wYGx6WYIJ0M3dzBXZpBY-139">
          <mxGeometry y="40" width="150" height="40" as="geometry" />
        </mxCell>
        <mxCell id="wYGx6WYIJ0M3dzBXZpBY-144" value="" style="shape=partialRectangle;html=1;whiteSpace=wrap;connectable=0;overflow=hidden;fillColor=none;top=0;left=0;bottom=0;right=0;" vertex="1" parent="wYGx6WYIJ0M3dzBXZpBY-143">
          <mxGeometry width="75" height="40" as="geometry" />
        </mxCell>
        <mxCell id="wYGx6WYIJ0M3dzBXZpBY-145" value="" style="shape=partialRectangle;html=1;whiteSpace=wrap;connectable=0;overflow=hidden;fillColor=none;top=0;left=0;bottom=0;right=0;" vertex="1" parent="wYGx6WYIJ0M3dzBXZpBY-143">
          <mxGeometry x="75" width="75" height="40" as="geometry" />
        </mxCell>
        <mxCell id="wYGx6WYIJ0M3dzBXZpBY-146" value="" style="shape=table;html=1;whiteSpace=wrap;startSize=0;container=1;collapsible=0;childLayout=tableLayout;" vertex="1" parent="WIyWlLk6GJQsqaUBKTNV-1">
          <mxGeometry x="-50" y="470" width="140" height="80" as="geometry" />
        </mxCell>
        <mxCell id="wYGx6WYIJ0M3dzBXZpBY-147" value="" style="shape=partialRectangle;html=1;whiteSpace=wrap;collapsible=0;dropTarget=0;pointerEvents=0;fillColor=none;top=0;left=0;bottom=0;right=0;points=[[0,0.5],[1,0.5]];portConstraint=eastwest;" vertex="1" parent="wYGx6WYIJ0M3dzBXZpBY-146">
          <mxGeometry width="140" height="40" as="geometry" />
        </mxCell>
        <mxCell id="wYGx6WYIJ0M3dzBXZpBY-148" value="Course-ID" style="shape=partialRectangle;html=1;whiteSpace=wrap;connectable=0;overflow=hidden;fillColor=none;top=0;left=0;bottom=0;right=0;" vertex="1" parent="wYGx6WYIJ0M3dzBXZpBY-147">
          <mxGeometry width="65" height="40" as="geometry" />
        </mxCell>
        <mxCell id="wYGx6WYIJ0M3dzBXZpBY-149" value="Course-Name" style="shape=partialRectangle;html=1;whiteSpace=wrap;connectable=0;overflow=hidden;fillColor=none;top=0;left=0;bottom=0;right=0;" vertex="1" parent="wYGx6WYIJ0M3dzBXZpBY-147">
          <mxGeometry x="65" width="75" height="40" as="geometry" />
        </mxCell>
        <mxCell id="wYGx6WYIJ0M3dzBXZpBY-150" value="" style="shape=partialRectangle;html=1;whiteSpace=wrap;collapsible=0;dropTarget=0;pointerEvents=0;fillColor=none;top=0;left=0;bottom=0;right=0;points=[[0,0.5],[1,0.5]];portConstraint=eastwest;" vertex="1" parent="wYGx6WYIJ0M3dzBXZpBY-146">
          <mxGeometry y="40" width="140" height="40" as="geometry" />
        </mxCell>
        <mxCell id="wYGx6WYIJ0M3dzBXZpBY-151" value="" style="shape=partialRectangle;html=1;whiteSpace=wrap;connectable=0;overflow=hidden;fillColor=none;top=0;left=0;bottom=0;right=0;" vertex="1" parent="wYGx6WYIJ0M3dzBXZpBY-150">
          <mxGeometry width="65" height="40" as="geometry" />
        </mxCell>
        <mxCell id="wYGx6WYIJ0M3dzBXZpBY-152" value="" style="shape=partialRectangle;html=1;whiteSpace=wrap;connectable=0;overflow=hidden;fillColor=none;top=0;left=0;bottom=0;right=0;" vertex="1" parent="wYGx6WYIJ0M3dzBXZpBY-150">
          <mxGeometry x="65" width="75" height="40" as="geometry" />
        </mxCell>
      </root>
    </mxGraphModel>
  </diagram>
</mxfile>
